<svg width="512" height="512" viewBox="0 0 512 512" fill="none" xmlns="http://www.w3.org/2000/svg">
<rect width="512" height="512" rx="255" fill="#F97316"/>
<path d="M210.146 287.896C218.738 287.896 226.978 284.483 233.053 278.407C239.128 272.332 242.542 264.092 242.542 255.5C242.542 237.617 236.062 229.583 229.583 216.625C215.692 188.855 226.681 164.092 255.5 138.875C261.979 171.271 281.417 202.371 307.333 223.104C333.25 243.837 346.208 268.458 346.208 294.375C346.208 306.287 343.862 318.082 339.303 329.088C334.745 340.093 328.063 350.092 319.64 358.515C311.217 366.938 301.218 373.62 290.212 378.179C279.207 382.737 267.412 385.083 255.5 385.083C243.588 385.083 231.793 382.737 220.787 378.179C209.782 373.62 199.782 366.938 191.359 358.515C182.936 350.092 176.255 340.093 171.696 329.088C167.138 318.082 164.792 306.287 164.792 294.375C164.792 279.434 170.402 264.649 177.75 255.5C177.75 264.092 181.163 272.332 187.238 278.407C193.314 284.483 201.554 287.896 210.146 287.896Z" fill="white" stroke="white" stroke-width="8" stroke-linecap="round" stroke-linejoin="round"/>
</svg>
