<svg xmlns="http://www.w3.org/2000/svg" version="1.1" xmlns:xlink="http://www.w3.org/1999/xlink" xmlns:svgjs="http://svgjs.dev/svgjs" viewBox="0 0 1422 800"><defs><linearGradient x1="50%" y1="0%" x2="50%" y2="100%" id="oooscillate-grad"><stop stop-color="hsl(37, 99%, 67%)" stop-opacity="1" offset="0%"></stop><stop stop-color="hsl(316, 73%, 52%)" stop-opacity="1" offset="100%"></stop></linearGradient></defs><g stroke-width="4.5" stroke="url(#oooscillate-grad)" fill="none" stroke-linecap="round"><path d="M 0 2871 Q 355.5 -100 711 400 Q 1066.5 900 1422 2871" stroke-dasharray="1 0" opacity="0.26"></path><path d="M 0 2784 Q 355.5 -100 711 400 Q 1066.5 900 1422 2784" stroke-dasharray="1 1" opacity="0.92"></path><path d="M 0 2697 Q 355.5 -100 711 400 Q 1066.5 900 1422 2697" stroke-dasharray="0 1" opacity="0.48"></path><path d="M 0 2610 Q 355.5 -100 711 400 Q 1066.5 900 1422 2610" stroke-dasharray="1 1" opacity="0.45"></path><path d="M 0 2523 Q 355.5 -100 711 400 Q 1066.5 900 1422 2523" opacity="0.67"></path><path d="M 0 2436 Q 355.5 -100 711 400 Q 1066.5 900 1422 2436" stroke-dasharray="0 1" opacity="0.29"></path><path d="M 0 2349 Q 355.5 -100 711 400 Q 1066.5 900 1422 2349" stroke-dasharray="0 1" opacity="0.89"></path><path d="M 0 2262 Q 355.5 -100 711 400 Q 1066.5 900 1422 2262" stroke-dasharray="0 1" opacity="0.17"></path><path d="M 0 2175 Q 355.5 -100 711 400 Q 1066.5 900 1422 2175" opacity="0.60"></path><path d="M 0 2088 Q 355.5 -100 711 400 Q 1066.5 900 1422 2088" stroke-dasharray="1 1" opacity="0.20"></path><path d="M 0 2001 Q 355.5 -100 711 400 Q 1066.5 900 1422 2001" stroke-dasharray="1 0" opacity="0.33"></path><path d="M 0 1914 Q 355.5 -100 711 400 Q 1066.5 900 1422 1914" stroke-dasharray="1 1" opacity="0.78"></path><path d="M 0 1827 Q 355.5 -100 711 400 Q 1066.5 900 1422 1827" stroke-dasharray="0 1" opacity="0.75"></path><path d="M 0 1740 Q 355.5 -100 711 400 Q 1066.5 900 1422 1740" stroke-dasharray="1 1" opacity="0.29"></path><path d="M 0 1653 Q 355.5 -100 711 400 Q 1066.5 900 1422 1653" stroke-dasharray="1 1" opacity="0.18"></path><path d="M 0 1566 Q 355.5 -100 711 400 Q 1066.5 900 1422 1566" stroke-dasharray="1 0" opacity="0.73"></path><path d="M 0 1479 Q 355.5 -100 711 400 Q 1066.5 900 1422 1479" stroke-dasharray="1 1" opacity="0.71"></path><path d="M 0 1392 Q 355.5 -100 711 400 Q 1066.5 900 1422 1392" stroke-dasharray="1 1" opacity="0.77"></path><path d="M 0 1305 Q 355.5 -100 711 400 Q 1066.5 900 1422 1305" stroke-dasharray="0 1" opacity="0.50"></path><path d="M 0 1218 Q 355.5 -100 711 400 Q 1066.5 900 1422 1218" opacity="0.88"></path><path d="M 0 1131 Q 355.5 -100 711 400 Q 1066.5 900 1422 1131" stroke-dasharray="1 0" opacity="0.92"></path><path d="M 0 1044 Q 355.5 -100 711 400 Q 1066.5 900 1422 1044" stroke-dasharray="1 0" opacity="0.86"></path><path d="M 0 957 Q 355.5 -100 711 400 Q 1066.5 900 1422 957" opacity="0.15"></path><path d="M 0 870 Q 355.5 -100 711 400 Q 1066.5 900 1422 870" stroke-dasharray="1 1" opacity="0.89"></path><path d="M 0 783 Q 355.5 -100 711 400 Q 1066.5 900 1422 783" stroke-dasharray="1 1" opacity="0.66"></path><path d="M 0 696 Q 355.5 -100 711 400 Q 1066.5 900 1422 696" opacity="0.89"></path><path d="M 0 609 Q 355.5 -100 711 400 Q 1066.5 900 1422 609" stroke-dasharray="1 1" opacity="0.72"></path><path d="M 0 522 Q 355.5 -100 711 400 Q 1066.5 900 1422 522" stroke-dasharray="1 0" opacity="0.48"></path><path d="M 0 435 Q 355.5 -100 711 400 Q 1066.5 900 1422 435" stroke-dasharray="1 0" opacity="0.98"></path><path d="M 0 348 Q 355.5 -100 711 400 Q 1066.5 900 1422 348" stroke-dasharray="1 0" opacity="0.34"></path><path d="M 0 261 Q 355.5 -100 711 400 Q 1066.5 900 1422 261" stroke-dasharray="0 1" opacity="0.51"></path><path d="M 0 174 Q 355.5 -100 711 400 Q 1066.5 900 1422 174" stroke-dasharray="1 1" opacity="0.33"></path></g></svg>
