<svg xmlns="http://www.w3.org/2000/svg" version="1.1" width="1440" height="800" preserveAspectRatio="none" viewBox="0 0 1440 800">
    <g mask="url(&quot;#SvgjsMask1000&quot;)" fill="none">
        <rect width="1440" height="800" x="0" y="0" fill="rgba(22, 22, 22, 1)" />
        <path d="M0,476.693C86.874,489.089,161.167,408.937,222.428,346.105C275.286,291.891,296.381,218.261,321.582,146.861C344.605,81.631,374.199,16.07,363.008,-52.193C351.914,-119.861,302.737,-171.705,260.5,-225.724C216.046,-282.579,174.564,-342.725,110.246,-375.464C37.964,-412.257,-43.943,-436.019,-123.703,-421.292C-207.264,-405.863,-284.881,-359.191,-337.828,-292.73C-389.769,-227.531,-412.348,-142.613,-412.123,-59.254C-411.916,17.627,-378.703,89.387,-336.625,153.731C-298.925,211.379,-234.764,240.272,-185.06,287.959C-120.167,350.219,-89.028,463.989,0,476.693" fill="#0e0e0e" />
        <path d="M1440 1078.2060000000001C1510.147 1075.895 1583.454 1153.032 1642.8609999999999 1115.659 1702.095 1078.396 1676.8220000000001 984.251 1696.228 917.015 1712.156 861.828 1749.52 813.274 1746.695 755.904 1743.733 695.754 1719.318 637.654 1680.216 591.852 1640.953 545.862 1582.583 526.1659999999999 1528.122 499.883 1462.692 468.306 1397.22 397.076 1329.132 422.417 1259.76 448.235 1270.057 554.902 1224.189 612.999 1181.525 667.037 1081.4189999999999 678.894 1072.716 747.192 1063.9769999999999 815.776 1159.471 852.171 1185.5529999999999 916.202 1213.451 984.691 1165.983 1089.593 1228.365 1129.311 1290.848 1169.093 1365.967 1080.644 1440 1078.2060000000001" fill="#1e1e1e" />
    </g>
    <defs>
        <mask id="SvgjsMask1000">
            <rect width="1440" height="800" fill="#ffffff" />
        </mask>
    </defs>
</svg>
